<svg id="Layer_1" data-name="Layer 1" xmlns="http://www.w3.org/2000/svg" viewBox="0 0 64 55.5"><defs><style>.cls-1{fill:none;stroke-linecap:round;stroke-linejoin:round;stroke-width:1.5px;}.cls-1,.cls-2{stroke:#01492c;}.cls-2{fill:#01492c;stroke-miterlimit:10;stroke-width:0.25px;}</style></defs><path class="cls-1" d="M57.74,39.85,14,47.22s3.39,4.38,14.54,4.18l.3,1.81,16.87-2.84-.33-2C55.73,44.84,57.74,39.85,57.74,39.85Z"/><path class="cls-1" d="M5.85,2.77h30A4,4,0,0,1,40.15,6.9V9.07H23"/><rect class="cls-1" x="30.87" y="9.07" width="9.28" height="5.58"/><line class="cls-1" x1="5.85" y1="9.42" x2="14.68" y2="9.38"/><line class="cls-1" x1="16.45" y1="9.42" x2="20.87" y2="9.38"/><line class="cls-1" x1="39.03" y1="42.48" x2="39.03" y2="31.49"/><polyline class="cls-1" points="39.03 17.68 39.03 14.65 32.25 14.65 32.25 33.15 32.25 44.14"/><circle class="cls-1" cx="15.23" cy="31.05" r="3"/><path class="cls-1" d="M28,44a1.71,1.71,0,0,0-1.71-2.19,1.77,1.77,0,0,0-1.25.53,2,2,0,0,0-3.88,0,2,2,0,0,0-4,.56,2.05,2.05,0,0,0,.42,1.23,1.55,1.55,0,0,0-.76-.21,1.6,1.6,0,0,0-1.36,2.37"/><path class="cls-1" d="M56.85,39.25A1.94,1.94,0,1,0,53,38.81a2.16,2.16,0,0,0-1.72-2.05A2.3,2.3,0,0,0,49,39a2.9,2.9,0,0,0,.23,1.56"/><path class="cls-2" d="M40.36,29.82a5.08,5.08,0,1,1,0-10.16,6.3,6.3,0,0,1,.75.05.14.14,0,0,1,.11.16.14.14,0,0,1-.16.12,5.36,5.36,0,0,0-.7,0A4.8,4.8,0,1,0,44,21.59a.14.14,0,1,1,.21-.18,5,5,0,0,1,1.25,3.33A5.09,5.09,0,0,1,40.36,29.82Z"/><path class="cls-2" d="M42.27,20.33l-.05,0-.27-.1a.13.13,0,0,1-.08-.18.14.14,0,0,1,.18-.08l.28.1a.15.15,0,0,1,.07.19A.14.14,0,0,1,42.27,20.33Z"/><path class="cls-2" d="M40.36,28.46a3.75,3.75,0,0,1-3.07-5.9.14.14,0,1,1,.23.16,3.48,3.48,0,1,0,.83-.83.15.15,0,0,1-.2,0,.13.13,0,0,1,0-.19,3.65,3.65,0,0,1,2.17-.7,3.75,3.75,0,0,1,0,7.5Z"/><path class="cls-2" d="M40.36,25.44a.73.73,0,0,1-.73-.73.73.73,0,0,1,.73-.72.72.72,0,0,1,.72.72A.73.73,0,0,1,40.36,25.44Zm0-1.17a.44.44,0,0,0-.44.44.43.43,0,0,0,.44.44.44.44,0,0,0,.44-.44A.44.44,0,0,0,40.36,24.27Z"/><path class="cls-2" d="M44,22.32a.14.14,0,0,1-.14-.14v-.81a.15.15,0,0,1,.14-.15h.86a.15.15,0,0,1,.14.15.14.14,0,0,1-.14.14h-.71v.67A.15.15,0,0,1,44,22.32Z"/><path class="cls-2" d="M40,24.42a.11.11,0,0,1-.09,0L39,23.59a.13.13,0,0,1,0-.2.14.14,0,0,1,.2,0l.82.79a.14.14,0,0,1,0,.2A.15.15,0,0,1,40,24.42Z"/><path class="cls-2" d="M40.75,24.42a.19.19,0,0,1-.1,0,.15.15,0,0,1,0-.2l1.55-1.65a.15.15,0,0,1,.21.2l-1.56,1.64A.12.12,0,0,1,40.75,24.42Z"/><path class="cls-2" d="M40.36,22.36a.14.14,0,0,1-.14-.14v-.54a.14.14,0,0,1,.28,0v.54A.14.14,0,0,1,40.36,22.36Z"/><path class="cls-2" d="M37.84,24.88h-.55a.14.14,0,0,1,0-.28h.55a.14.14,0,1,1,0,.28Z"/><path class="cls-2" d="M40.36,27.94a.14.14,0,0,1-.14-.14v-.54a.14.14,0,0,1,.28,0v.54A.14.14,0,0,1,40.36,27.94Z"/><path class="cls-2" d="M43.42,24.88h-.54a.14.14,0,0,1,0-.28h.54a.14.14,0,0,1,0,.28Z"/><circle class="cls-2" cx="37.49" cy="21.87" r="0.16"/></svg>