<svg id="Layer_1" data-name="Layer 1" xmlns="http://www.w3.org/2000/svg" xmlns:xlink="http://www.w3.org/1999/xlink" viewBox="0 0 64 55.63"><defs><style>.cls-1{fill:none;}.cls-2{clip-path:url(#clip-path);}.cls-3,.cls-4{fill:#01492c;}.cls-3{stroke:#01492c;stroke-miterlimit:10;stroke-width:0.5px;}</style><clipPath id="clip-path"><rect class="cls-1" width="64" height="64"/></clipPath></defs><g class="cls-2"><path class="cls-3" d="M43.66,53.61H29.93a2.53,2.53,0,0,1-2.53-2.53V37a.43.43,0,0,1,.85,0v14a1.69,1.69,0,0,0,1.68,1.69H43.66a1.69,1.69,0,0,0,1.68-1.69V30.35a1.68,1.68,0,0,0-1.68-1.68,1.27,1.27,0,0,1-1.27-1.27V16.63A.42.42,0,0,0,42,16.2H39.83a5.52,5.52,0,0,0-5.51,5.51v6.37a1.27,1.27,0,0,1-.78,1.19,10.42,10.42,0,0,1-1.09.5.42.42,0,0,1-.54-.27.42.42,0,0,1,.27-.53,10.43,10.43,0,0,0,1-.47.44.44,0,0,0,.29-.42V21.71a6.36,6.36,0,0,1,6.35-6.35H42a1.27,1.27,0,0,1,1.27,1.27V27.4a.42.42,0,0,0,.42.42,2.54,2.54,0,0,1,2.53,2.53V51.08A2.53,2.53,0,0,1,43.66,53.61Z"/><path class="cls-3" d="M42.82,16.2H37.33a.42.42,0,0,1-.42-.42V10.29a.41.41,0,0,1,.42-.42h5.49a.42.42,0,0,1,.42.42v5.49A.42.42,0,0,1,42.82,16.2Zm-5.07-.84H42.4V10.71H37.75Z"/><path class="cls-3" d="M32.53,7.85H30.67a.43.43,0,0,1-.43-.43V5.56a.42.42,0,0,1,.43-.42h1.86a.42.42,0,0,1,.42.42V7.42A.42.42,0,0,1,32.53,7.85ZM31.09,7h1V6h-1Z"/><path class="cls-3" d="M32.53,16a.39.39,0,0,1-.23-.07l-.94-.62a.43.43,0,0,1-.14-.55l2.34-4.54V8.55h-1a.42.42,0,0,1-.42-.42V5a.42.42,0,0,1,.42-.42h8a.42.42,0,0,1,.28.1L46.67,10a.44.44,0,0,1,.12.47.44.44,0,0,1-.4.27H36.21l-3.33,5.07a.42.42,0,0,1-.27.18Zm-.38-1.18.26.17L35.63,10A.42.42,0,0,1,36,9.85h9.3L40.35,5.41H33v2.3h1a.42.42,0,0,1,.42.42v2.14a.41.41,0,0,1,0,.19Z"/><path class="cls-3" d="M24,3.28a.47.47,0,0,1-.17,0l-1.55-.68A.42.42,0,0,1,22,2a.41.41,0,0,1,.55-.21l1.55.68a.41.41,0,0,1,.21.55A.42.42,0,0,1,24,3.28Z"/><path class="cls-3" d="M27.29,4.74a.47.47,0,0,1-.17,0L25.57,4a.43.43,0,0,1-.22-.56.42.42,0,0,1,.56-.21l1.55.68a.41.41,0,0,1,.21.55A.42.42,0,0,1,27.29,4.74Z"/><path class="cls-3" d="M22.42,10.73a.42.42,0,0,1-.17-.81l1.55-.68a.41.41,0,0,1,.55.22.41.41,0,0,1-.21.55l-1.55.68A.33.33,0,0,1,22.42,10.73Z"/><path class="cls-3" d="M25.74,9.27A.44.44,0,0,1,25.35,9a.43.43,0,0,1,.22-.56l1.55-.68a.41.41,0,0,1,.55.22.41.41,0,0,1-.21.55l-1.55.68A.35.35,0,0,1,25.74,9.27Z"/><path class="cls-3" d="M27.29,6.66H24.85a.42.42,0,0,1,0-.84h2.44a.42.42,0,0,1,0,.84Z"/><path class="cls-3" d="M37.33,47a.39.39,0,0,1-.18,0,.42.42,0,0,1-.2-.56c3.24-7,3-30.3,3-30.54a.42.42,0,0,1,.42-.43h0a.42.42,0,0,1,.42.42c0,1,.22,23.77-3.11,30.91A.42.42,0,0,1,37.33,47Z"/><path class="cls-3" d="M45.36,40.33h-13a.42.42,0,0,1-.43-.42.42.42,0,0,1,.43-.42h13a.42.42,0,0,1,.43.42A.42.42,0,0,1,45.36,40.33Z"/><path class="cls-3" d="M30.79,40.33h-1.5a.42.42,0,0,1-.42-.42.42.42,0,0,1,.42-.42h1.5a.42.42,0,0,1,.43.42A.42.42,0,0,1,30.79,40.33Z"/><path class="cls-3" d="M29.05,35.68a2.93,2.93,0,0,1,0-5.86.22.22,0,0,1,.22.22.22.22,0,0,1-.22.23,2.48,2.48,0,1,0,2.47,2.48.23.23,0,0,1,.46,0A2.94,2.94,0,0,1,29.05,35.68Z"/><circle class="cls-3" cx="29.05" cy="32.75" r="0.22"/><path class="cls-3" d="M29.05,32.82a.07.07,0,0,1-.08-.07V31a.07.07,0,0,1,.08-.08.07.07,0,0,1,.07.08v1.76A.07.07,0,0,1,29.05,32.82Z"/><path class="cls-3" d="M30.57,32.82H29.05a.07.07,0,0,1-.08-.07.08.08,0,0,1,.08-.08h1.52a.08.08,0,0,1,.07.08A.07.07,0,0,1,30.57,32.82Z"/><path class="cls-4" d="M23.11,5.55a.13.13,0,0,1-.14.06h-.09l-.16.54.18.08s.07,0,.08.07a.17.17,0,0,1,0,.12.08.08,0,0,1-.11,0l-.25-.1h-.06a2.12,2.12,0,0,1-.43.35l.18.15a.15.15,0,0,1,.05.14.12.12,0,0,1-.2,0L22,6.92l-.06-.06-.36.34c.06.06.12.11.17.17a.24.24,0,0,1,.06.08.11.11,0,0,1-.05.12.09.09,0,0,1-.13,0,.49.49,0,0,1-.13-.12.28.28,0,0,1-.06-.08l-.32.48.14.12a.12.12,0,0,1,0,.18.13.13,0,0,1-.18,0L21,8a1.44,1.44,0,0,1-.76.35v.11c0,.09-.05.14-.12.14s-.11,0-.12-.13,0-.11-.12-.13h-.13c-.06.11-.11.22-.18.33a1.36,1.36,0,0,1-.5.48,1.23,1.23,0,0,0-.49.47,1.48,1.48,0,0,0-.12.29c0,.08-.08.13-.15.11a.11.11,0,0,1-.08-.16A1.32,1.32,0,0,1,18.82,9a1.35,1.35,0,0,0,.46-.39,3,3,0,0,0,.2-.34L19.14,8a2.49,2.49,0,0,0-.43.36,2.72,2.72,0,0,0-.48.73,1.7,1.7,0,0,1-.45.65,1.13,1.13,0,0,1-.57.25h-.06A.12.12,0,0,1,17,9.91a.12.12,0,0,1,.13-.12.85.85,0,0,0,.4-.15A1.14,1.14,0,0,0,18,9.13a4.28,4.28,0,0,1,.37-.66,2.8,2.8,0,0,1,.6-.59l.05,0-.13-.2a1.27,1.27,0,0,0-.64.48,2.89,2.89,0,0,1-.33.45l-.14.13a.14.14,0,0,1-.18,0,.14.14,0,0,1,0-.18,3,3,0,0,0,.25-.25A1.13,1.13,0,0,0,18,8.09a1.61,1.61,0,0,1,.76-.65l.06,0a1.3,1.3,0,0,1,0-.78l-.18,0-.1-.07a.11.11,0,0,1,0-.13.14.14,0,0,1,.14,0l.19.05s0,0,.05,0l.26-.4L19,5.81a.11.11,0,0,1,0-.13.14.14,0,0,1,.1-.07.15.15,0,0,1,.11,0l.16.15.4-.47-.1-.1a.11.11,0,0,1,0-.17.12.12,0,0,1,.17,0l.1.1.42-.37s-.07-.1-.1-.16a.12.12,0,0,1,0-.17c.06,0,.12,0,.17,0l.05.09,0,0,.45-.3s-.05-.1-.08-.16A.11.11,0,0,1,20.88,4c.06,0,.12,0,.16.07l.09.17.23,0a1.12,1.12,0,0,1,.45,0s.06,0,.07,0L22,4a.87.87,0,0,1,.09-.11h.06c.1.05.12.1.07.2l-.09.17h0a1.67,1.67,0,0,1,.45.34h.05l.19-.08a.11.11,0,0,1,.13,0,.11.11,0,0,1-.05.18l-.16.08c0,.08.07.16.1.25l.06.25c.08,0,.18,0,.24.06Zm-.48,0a1.16,1.16,0,0,0-.2-.7,1.06,1.06,0,0,0-1.37-.34A4.81,4.81,0,0,0,20.4,5a5.75,5.75,0,0,0-1.29,1.49,1.09,1.09,0,0,0,1.83,1.18c.13-.18.25-.37.39-.55a3.67,3.67,0,0,1,.82-.7A1,1,0,0,0,22.63,5.58Z"/><path class="cls-4" d="M17.2,8.71a.11.11,0,0,1,.11.12.12.12,0,0,1-.12.12.11.11,0,0,1-.11-.12A.12.12,0,0,1,17.2,8.71Z"/><path class="cls-4" d="M21.54,4.66a.85.85,0,0,1,.84,1,.86.86,0,0,1-.41.63,3.2,3.2,0,0,0-.77.65,5.66,5.66,0,0,0-.4.56,1,1,0,0,1-.51.4.85.85,0,0,1-1.09-.7.91.91,0,0,1,.13-.58l.48-.67A.12.12,0,0,1,20,5.85a.23.23,0,0,1,.08.09.24.24,0,0,1-.05.13c-.15.22-.31.43-.46.66a.57.57,0,0,0,0,.64.56.56,0,0,0,.55.29.58.58,0,0,0,.47-.27c.14-.19.26-.39.41-.57a3.32,3.32,0,0,1,.76-.69c.08-.07.18-.12.26-.2A.61.61,0,0,0,21.2,5l-.49.35h0c-.08.07-.15.07-.2,0s0-.13.05-.19l.61-.43A.73.73,0,0,1,21.54,4.66Z"/><path class="cls-4" d="M20.81,5.8a.41.41,0,0,1,.41-.42.38.38,0,0,1,.4.38.42.42,0,0,1-.41.43A.4.4,0,0,1,20.81,5.8Zm.57,0a.15.15,0,0,0-.16-.16.19.19,0,0,0-.17.19.15.15,0,0,0,.16.15A.17.17,0,0,0,21.38,5.77Z"/><path class="cls-4" d="M20.69,6.46v.09a.12.12,0,0,1-.12.11.1.1,0,0,1-.11-.11.49.49,0,0,1,0-.17.11.11,0,0,1,.11-.11.13.13,0,0,1,.12.11v.08Z"/><path class="cls-4" d="M20,7a.27.27,0,0,1,.2.2.11.11,0,0,1-.18.09.46.46,0,0,1-.12-.12A.11.11,0,0,1,20,7Z"/><path class="cls-4" d="M20.05,6.53c.08,0,.13,0,.14.1a.11.11,0,0,1-.09.13H20a.13.13,0,0,1-.12-.12A.12.12,0,0,1,20,6.53Z"/><path class="cls-4" d="M20.34,5.63a.12.12,0,1,1-.12-.12A.12.12,0,0,1,20.34,5.63Z"/><path class="cls-4" d="M30.16,30.88a1,1,0,0,1,0,.18v.49H30v-.49a1.84,1.84,0,0,0-.09-.65l.21-.08.05.22c0,.11.08.16.17.16s.14,0,.14-.1a1.43,1.43,0,0,0,0-.23l.2-.05a1.06,1.06,0,0,1,0,.29.3.3,0,0,1-.31.32A.22.22,0,0,1,30.16,30.88Z"/><path class="cls-4" d="M31.33,30.8a.28.28,0,0,1,0-.15.34.34,0,0,1,.34-.33.44.44,0,0,1,.23.06l-.08.2a.28.28,0,0,0-.16,0c-.08,0-.14,0-.14.12a.13.13,0,0,0,.13.14.63.63,0,0,0,.25-.07l.05.21a.8.8,0,0,1-.37.09.54.54,0,0,1-.33-.1.61.61,0,0,1,0,.14v.48H31v-.49a1.84,1.84,0,0,0-.09-.65l.21-.08c0,.13.05.22.08.31S31.25,30.78,31.33,30.8Z"/></g></svg>