<svg id="Layer_1" data-name="Layer 1" xmlns="http://www.w3.org/2000/svg" viewBox="0 0 64 55.53"><defs><style>.cls-1{fill:none;stroke:#01492c;stroke-linecap:round;stroke-linejoin:round;stroke-width:1.5px;}</style></defs><path class="cls-1" d="M7,39.21c2.29-3.87,6.38-7.31,10.92-8,7-1,12.15-5,12.15-10.44"/><path class="cls-1" d="M15.75,41.83c2.3-3.87,6.38-7.31,10.92-8,7-1,12.16-5,12.16-10.44"/><path class="cls-1" d="M24.48,44.46c2.29-3.87,6.37-7.31,10.91-8,7-1,12.16-5,12.16-10.44"/><polygon class="cls-1" points="30.1 13.96 26.66 19.93 33.55 19.93 30.1 13.96"/><polygon class="cls-1" points="38.83 16.94 35.38 22.91 42.27 22.91 38.83 16.94"/><polygon class="cls-1" points="47.55 19.55 44.1 25.52 51 25.52 47.55 19.55"/><line class="cls-1" x1="7.96" y1="52.93" x2="57.4" y2="2.86"/><line class="cls-1" x1="57.4" y1="52.93" x2="7.96" y2="2.86"/></svg>