<svg id="Layer_1" data-name="Layer 1" xmlns="http://www.w3.org/2000/svg" xmlns:xlink="http://www.w3.org/1999/xlink" viewBox="0 0 64 55.95"><defs><style>.cls-1,.cls-3{fill:none;}.cls-2{clip-path:url(#clip-path);}.cls-3{stroke:#01492c;stroke-linecap:round;stroke-linejoin:round;stroke-width:1.5px;}.cls-4{fill:#01492c;}</style><clipPath id="clip-path"><rect class="cls-1" width="64" height="64"/></clipPath></defs><g class="cls-2"><path class="cls-3" d="M58.57,28A24.89,24.89,0,1,1,33.68,3.09"/><path class="cls-1" d="M10.44,34.15s7.55-8.07,19.67-4,13.85,6.89,26.82.57l1.56-.8S81.46,3.71,33-1.27c0,0-54.5,12.51-23.31,35.73Z"/><path class="cls-3" d="M35.82,41.79a14,14,0,0,1-4.28-27.62,14.53,14.53,0,0,1,4.11,0"/><circle class="cls-3" cx="33.68" cy="27.98" r="24.89"/><path class="cls-3" d="M42.08,19.15l.24-.23a11,11,0,0,1,2.15-1.7,3.77,3.77,0,0,1,2.92-.68,3.52,3.52,0,0,1,2.18,3c.28,1.71-.37,3.65.27,5.27A8.07,8.07,0,0,0,52,27.34c1.41,1.36,3.57,3.09,2.14,5.36-1.73,2.73-4.39.19-6.53,2.75s-3.21,6.35-5.91,3.31c-1.06-1.19-1.18-4.59-2.45-5.52-2.47-1.8-5.93,0-8.4-1.05-3.52-1.54.52-4.85,2.35-5.68a2.65,2.65,0,0,0,1.61-1.58,2.44,2.44,0,0,0,0-1.14c-.2-.95-.63-1.83-.89-2.77a3.75,3.75,0,0,1,.2-2.85,3.07,3.07,0,0,1,3.6-1.06A15.38,15.38,0,0,1,41,19.05a1.05,1.05,0,0,0,.8.25A.85.85,0,0,0,42.08,19.15Z"/><ellipse class="cls-4" cx="33.46" cy="37.26" rx="1.58" ry="1.48" transform="translate(-9.85 62.4) rotate(-78.2)"/><ellipse class="cls-4" cx="41.98" cy="12.41" rx="1.25" ry="1.17" transform="translate(21.26 50.97) rotate(-78.2)"/><ellipse class="cls-4" cx="38.65" cy="41.23" rx="1.25" ry="1.17" transform="translate(-9.61 70.64) rotate(-78.2)"/><ellipse class="cls-4" cx="54.94" cy="23.31" rx="1.4" ry="1.31" transform="translate(20.9 72.32) rotate(-78.2)"/></g></svg>