<svg id="Layer_1" data-name="Layer 1" xmlns="http://www.w3.org/2000/svg" xmlns:xlink="http://www.w3.org/1999/xlink" viewBox="0 0 64 55.73"><defs><style>.cls-1,.cls-4{fill:none;}.cls-2{clip-path:url(#clip-path);}.cls-3{fill:#01492c;}.cls-4{stroke:#01492c;stroke-linecap:round;stroke-linejoin:round;stroke-width:1.5px;}.cls-5{clip-path:url(#clip-path-2);}</style><clipPath id="clip-path"><rect class="cls-1" x="-0.36" width="64" height="64"/></clipPath><clipPath id="clip-path-2"><path class="cls-1" d="M12.69,36.34A16.88,16.88,0,0,1,30.15,32.8c10.76,3.63,12.29,6.12,23.8.51l1.39-.71S75.72,9.32,32.68,4.9c0,0-48.37,11.1-20.69,31.71Z"/></clipPath></defs><g class="cls-2"><path class="cls-3" d="M45.65,14.17a4.44,4.44,0,0,0,.37.38,4.31,4.31,0,0,0-.37.37,4.4,4.4,0,0,0-.37-.38,3.23,3.23,0,0,0,.37-.37m0-4.63c-.15.65-.26,1.31-.36,2a3.2,3.2,0,0,1-2.72,2.71l-2,.32.27.07,1.81.29a3.18,3.18,0,0,1,2.69,2.73c.09.64.2,1.28.3,1.92A14.72,14.72,0,0,0,46,17.83a3.24,3.24,0,0,1,3-3l1.71-.27v-.05l-1.94-.31a3.16,3.16,0,0,1-2.38-1.67,4.86,4.86,0,0,1-.44-1.67c-.07-.44-.14-.89-.22-1.33Z"/><path class="cls-3" d="M43.38,2c-.08.37-.14.73-.2,1.09a1.77,1.77,0,0,1-1.5,1.5l-1.13.18.15,0,1,.16A1.77,1.77,0,0,1,43.19,6.5c.05.36.11.71.16,1.06a6.47,6.47,0,0,0,.18-.94A1.78,1.78,0,0,1,45.18,5l1-.15v0l-1.07-.17a1.78,1.78,0,0,1-1.32-.93,2.61,2.61,0,0,1-.24-.92L43.38,2Z"/><path class="cls-3" d="M53.37,7.56a7.67,7.67,0,0,0-.15.81A1.32,1.32,0,0,1,52.1,9.48l-.83.13.11,0,.74.12a1.28,1.28,0,0,1,1.1,1.12c0,.26.09.52.13.78a5.4,5.4,0,0,0,.13-.7A1.33,1.33,0,0,1,54.7,9.74l.71-.11v0l-.8-.12a1.29,1.29,0,0,1-1-.69,1.81,1.81,0,0,1-.18-.68l-.09-.55Z"/><path class="cls-4" d="M55.41,30.86A22.09,22.09,0,1,1,33.32,8.77"/><g class="cls-5"><path class="cls-4" d="M53.47,21.79a22.09,22.09,0,1,1-20.15-13,21.65,21.65,0,0,1,5.07.59"/><path class="cls-4" d="M24,22.7a12.39,12.39,0,1,1-3.07,8.16,12.59,12.59,0,0,1,.53-3.6"/></g><path class="cls-4" d="M12.76,36.24a16.41,16.41,0,0,1,17.16-3.53c10.56,3.63,12.07,6.12,23.38.5l1.36-.71"/></g></svg>