<svg id="Layer_1" data-name="Layer 1" xmlns="http://www.w3.org/2000/svg" xmlns:xlink="http://www.w3.org/1999/xlink" viewBox="0 0 64 55.58"><defs><style>.cls-1,.cls-3{fill:none;}.cls-2{clip-path:url(#clip-path);}.cls-3{stroke:#01492c;stroke-linecap:round;stroke-linejoin:round;stroke-width:1.5px;}.cls-4{fill:#01492c;}</style><clipPath id="clip-path"><rect class="cls-1" x="-0.64" width="64" height="64"/></clipPath></defs><g class="cls-2"><line class="cls-3" x1="8" y1="53.13" x2="57.44" y2="3.07"/><line class="cls-3" x1="57.44" y1="53.13" x2="8" y2="3.07"/><path class="cls-3" d="M14.53,25.09a8.34,8.34,0,0,1-1.61-4.88c0-5,4.47-9,10-9a11.18,11.18,0,0,1,1.42.12,8.73,8.73,0,0,1,8.44-5.74c4.89,0,8.85,3.58,8.85,8a4.1,4.1,0,0,1-.06.49A6.35,6.35,0,0,1,44,13.57a5.83,5.83,0,0,1,6,5.62,5.28,5.28,0,0,1-.68,2.55,8,8,0,0,1,1.09.1,7.51,7.51,0,0,1,4.74,3.1,7.46,7.46,0,0,1,1.19,5.69,7.34,7.34,0,0,1-1.81,3.6,7.53,7.53,0,0,1-5.76,2.44,5.1,5.1,0,0,1,.28,1.62,5.18,5.18,0,0,1-4.45,5.12,5.38,5.38,0,0,1,.21,1.4,5.29,5.29,0,0,1-10,2.44A5.15,5.15,0,0,1,27.17,44,11.37,11.37,0,0,1,14.53,25.09Z"/><circle class="cls-3" cx="51" cy="9.4" r="3.12"/><circle class="cls-3" cx="19.67" cy="36.1" r="3.12"/><path class="cls-3" d="M13.72,16.66a5.68,5.68,0,1,1,8.39-5.4A10,10,0,0,0,13.72,16.66Z"/><circle class="cls-3" cx="39.66" cy="45.17" r="4.83"/><circle class="cls-4" cx="14.4" cy="46.73" r="1.28"/><circle class="cls-4" cx="24.82" cy="49.3" r="1.28"/><circle class="cls-4" cx="48.23" cy="46.73" r="1.28"/><circle class="cls-4" cx="54.03" cy="41.63" r="1.28"/><circle class="cls-4" cx="43.64" cy="36.1" r="1.28"/><circle class="cls-4" cx="43.64" cy="20.22" r="1.28"/><circle class="cls-4" cx="19.67" cy="27.84" r="1.28"/><circle class="cls-4" cx="22.11" cy="17.94" r="1.28"/><circle class="cls-4" cx="23.54" cy="2.95" r="1.28"/><circle class="cls-4" cx="30.3" cy="12.52" r="1.28"/><circle class="cls-4" cx="51" cy="28.89" r="1.28"/><circle class="cls-4" cx="7.5" cy="17.94" r="1.28"/><circle class="cls-4" cx="43.64" cy="6.85" r="1.28"/></g></svg>