<svg id="Layer_1" data-name="Layer 1" xmlns="http://www.w3.org/2000/svg" xmlns:xlink="http://www.w3.org/1999/xlink" viewBox="0 0 64 55.69"><defs><style>.cls-1,.cls-3{fill:none;}.cls-2{clip-path:url(#clip-path);}.cls-3{stroke:#01492c;stroke-linecap:round;stroke-linejoin:round;stroke-width:1.5px;}</style><clipPath id="clip-path"><rect class="cls-1" width="64" height="64"/></clipPath></defs><g class="cls-2"><path class="cls-3" d="M19.6,38.08h0a16.76,16.76,0,0,0,4.1,7.34"/><path class="cls-3" d="M37,10.77c-1.6-2.83-3.05-5.37-4-7a1.32,1.32,0,0,0-2.29,0C27.31,9.65,17.63,26.67,17,27.9h0a16.9,16.9,0,1,0,29.59,0h0"/><polygon class="cls-3" points="48.05 16.18 44.58 16.18 44.58 12.71 39.54 12.71 39.54 16.18 36.07 16.18 36.07 21.22 39.54 21.22 39.54 24.69 44.58 24.69 44.58 21.22 48.05 21.22 48.05 16.18"/></g></svg>