<svg id="Layer_1" data-name="Layer 1" xmlns="http://www.w3.org/2000/svg" xmlns:xlink="http://www.w3.org/1999/xlink" viewBox="0 0 64 56.07"><defs><style>.cls-1,.cls-4{fill:none;}.cls-2{font-size:5px;fill:#113dfe;font-family:YekanBakh-Bold, YekanBakh Bold;font-weight:700;}.cls-3{clip-path:url(#clip-path);}.cls-4{stroke:#01492c;stroke-linecap:round;stroke-linejoin:round;stroke-width:1.5px;}.cls-5{fill:#01492c;}</style><clipPath id="clip-path"><rect class="cls-1" x="-0.32" width="64" height="64"/></clipPath></defs><text class="cls-2" transform="translate(22.31 58.98)">بسانم تظلغ</text><g class="cls-3"><path class="cls-4" d="M19.6,38.26h0a17,17,0,0,0,4.12,7.39"/><path class="cls-4" d="M38.81,14.3c-1.61-2.84-4.8-9-5.76-10.63a1.32,1.32,0,0,0-2.3,0C27.36,9.63,17.61,26.77,17,28h0a17,17,0,1,0,29.8,0l-3-4.87"/></g><path class="cls-5" d="M39.6,21.46h0a.73.73,0,0,1-.54-.24l-3-3.17a.76.76,0,1,1,1.1-1l2.48,2.6,5.64-5.71A.76.76,0,0,1,46.33,15l-6.19,6.27A.76.76,0,0,1,39.6,21.46Z"/></svg>