<svg id="Layer_1" data-name="Layer 1" xmlns="http://www.w3.org/2000/svg" xmlns:xlink="http://www.w3.org/1999/xlink" viewBox="0 0 64 55.35"><defs><style>.cls-1,.cls-2{fill:none;}.cls-2{stroke:#01492c;stroke-linecap:round;stroke-linejoin:round;stroke-width:1.5px;}.cls-3{clip-path:url(#clip-path);}</style><clipPath id="clip-path"><path class="cls-1" d="M11.65,35.56a17.61,17.61,0,0,1,18.2-3.68c11.21,3.79,12.8,6.38,24.8.53l1.45-.74S77.34,7.41,32.48,2.81c0,0-50.4,11.57-21.56,33Z"/></clipPath></defs><path class="cls-2" d="M56.17,29.86a23,23,0,1,1-23-23"/><g class="cls-3"><path class="cls-2" d="M54.15,20.41a23,23,0,1,1-15.71-13"/><path class="cls-2" d="M23.43,21.35a12.78,12.78,0,1,1-2.65,4.75"/></g><path class="cls-2" d="M11.73,35.47A17.08,17.08,0,0,1,29.6,31.78c11,3.79,12.58,6.38,24.37.53l1.42-.74"/><path class="cls-2" d="M51.43,10h0c-.17-.36-3-5.26-3.93-7a.38.38,0,0,0-.66,0c-1,1.7-3.76,6.6-3.93,7h0A4.87,4.87,0,1,0,52,12.31,4.78,4.78,0,0,0,51.43,10Z"/></svg>