<svg id="Layer_1" data-name="Layer 1" xmlns="http://www.w3.org/2000/svg" xmlns:xlink="http://www.w3.org/1999/xlink" viewBox="0 0 64 55.83"><defs><style>.cls-1,.cls-3{fill:none;}.cls-2{clip-path:url(#clip-path);}.cls-3{stroke:#01492c;stroke-linecap:round;stroke-linejoin:round;stroke-width:1.5px;}</style><clipPath id="clip-path"><rect class="cls-1" x="-0.06" width="64" height="64"/></clipPath></defs><g class="cls-2"><polyline class="cls-3" points="52.3 18.46 52.3 11.14 41.72 7.26 36.42 2.67 28.05 2.59 19.68 2.67 14.38 7.26 3.8 11.14 3.8 52.77 28.05 52.77 52.3 52.77 52.3 29.3"/><polyline class="cls-3" points="48.39 20.48 52.19 24.48 59.99 16.58"/><polygon class="cls-3" points="19.68 3.03 14.55 7.12 20.09 21.64 27.29 16.09 19.68 3.03"/><polygon class="cls-3" points="35.86 2.85 40.98 6.95 35.44 21.46 28.24 15.91 35.86 2.85"/><line class="cls-3" x1="27.65" y1="26.13" x2="27.65" y2="52.14"/><line class="cls-3" x1="27.65" y1="22.51" x2="27.65" y2="19.12"/></g></svg>