<svg id="Layer_1" data-name="Layer 1" xmlns="http://www.w3.org/2000/svg" xmlns:xlink="http://www.w3.org/1999/xlink" viewBox="0 0 64 56.31"><defs><style>.cls-1,.cls-3{fill:none;}.cls-2{clip-path:url(#clip-path);}.cls-3{stroke:#01492c;stroke-linecap:round;stroke-linejoin:round;stroke-width:1.5px;}</style><clipPath id="clip-path"><rect class="cls-1" x="-0.06" width="64" height="64"/></clipPath></defs><g class="cls-2"><path class="cls-3" d="M31.85,20.54a17.09,17.09,0,0,0-7.14,32.61H39a17.08,17.08,0,0,0-7.14-32.61Z"/><polyline class="cls-3" points="26.26 20.81 26.26 13.45 37.44 13.45 37.44 20.81"/><rect class="cls-3" x="29.35" y="8.45" width="5" height="5"/><line class="cls-3" x1="27.94" y1="10.35" x2="29.35" y2="10.35"/><line class="cls-3" x1="14.02" y1="2.86" x2="16.76" y2="4.07"/><line class="cls-3" x1="20.24" y1="5.6" x2="22.98" y2="6.81"/><line class="cls-3" x1="14.02" y1="17.85" x2="16.76" y2="16.65"/><line class="cls-3" x1="20.24" y1="15.12" x2="22.98" y2="13.91"/><line class="cls-3" x1="12.9" y1="10.36" x2="15.9" y2="10.36"/><line class="cls-3" x1="19.98" y1="10.36" x2="22.98" y2="10.36"/><path class="cls-3" d="M47.67,31.15c-2.9,5.58-9.33,10.32-17.48,12.16A29,29,0,0,1,15.63,43"/></g></svg>