<svg id="Layer_1" data-name="Layer 1" xmlns="http://www.w3.org/2000/svg" viewBox="0 0 64 54.99"><defs><style>.cls-1,.cls-2{fill:none;}.cls-2{stroke:#01492c;stroke-linecap:round;stroke-linejoin:round;stroke-width:1.5px;}.cls-3{fill:#01492c;}</style></defs><rect class="cls-1" y="-0.15" width="64" height="64"/><rect class="cls-1" x="-0.03" y="0.16" width="64" height="64"/><path class="cls-2" d="M40.9,23.63h0c-.36-.74-6.19-11-8.21-14.54a.79.79,0,0,0-1.38,0c-2,3.56-7.85,13.8-8.21,14.54h0a10.16,10.16,0,1,0,17.8,0Z"/><circle class="cls-3" cx="24.52" cy="25.82" r="0.4"/><circle class="cls-3" cx="23.72" cy="29.73" r="0.4"/><circle class="cls-3" cx="30.35" cy="23.96" r="0.4"/><circle class="cls-3" cx="28.24" cy="30.54" r="0.4"/><circle class="cls-3" cx="29.28" cy="26.62" r="0.4"/><circle class="cls-3" cx="27.2" cy="22.73" r="0.4"/><circle class="cls-3" cx="33.57" cy="22.94" r="0.4"/><circle class="cls-3" cx="38.02" cy="21.09" r="0.4"/><circle class="cls-3" cx="34.92" cy="19.96" r="0.4"/><circle class="cls-3" cx="32.72" cy="27.83" r="0.4"/><circle class="cls-3" cx="34.92" cy="25.16" r="0.4"/><circle class="cls-3" cx="36.04" cy="29.73" r="0.4"/><circle class="cls-3" cx="38.02" cy="27.42" r="0.4"/><circle class="cls-3" cx="40.59" cy="27.42" r="0.4"/><circle class="cls-3" cx="25.33" cy="32.36" r="0.4"/><circle class="cls-3" cx="35.64" cy="33.96" r="0.4"/><circle class="cls-3" cx="32.32" cy="35.73" r="0.4"/><circle class="cls-3" cx="29.95" cy="37.21" r="0.4"/><circle class="cls-3" cx="35.32" cy="36.41" r="0.4"/><circle class="cls-3" cx="38.42" cy="23.69" r="0.4"/><circle class="cls-3" cx="29.67" cy="15.36" r="0.4"/><circle class="cls-3" cx="32.77" cy="17.63" r="0.4"/><circle class="cls-3" cx="33.17" cy="13.89" r="0.4"/><circle class="cls-3" cx="30.75" cy="21.09" r="0.4"/><circle class="cls-3" cx="30.09" cy="32.76" r="0.4"/><circle class="cls-3" cx="27.2" cy="35.21" r="0.4"/><circle class="cls-3" cx="29.15" cy="18.43" r="0.4"/><circle class="cls-3" cx="39.08" cy="31.09" r="0.4"/><circle class="cls-3" cx="32.72" cy="31.09" r="0.4"/><circle class="cls-3" cx="26.4" cy="27.83" r="0.4"/><path class="cls-2" d="M32,53.18c3.28-2.89,7.74-5,15.7-11.15a20.57,20.57,0,0,0,7.76-15.52V9.39c-7-.1-7.86-6.8-7.86-6.8H16.4s-.9,6.7-7.86,6.8V26.51A20.57,20.57,0,0,0,16.3,42c8,6.17,12.42,8.26,15.7,11.15"/></svg>