<svg id="Layer_1" data-name="Layer 1" xmlns="http://www.w3.org/2000/svg" xmlns:xlink="http://www.w3.org/1999/xlink" viewBox="0 0 64 56.44"><defs><style>.cls-1{fill:none;}.cls-2{clip-path:url(#clip-path);}.cls-3{fill:#01492c;stroke:#01492c;stroke-miterlimit:10;stroke-width:0.25px;}</style><clipPath id="clip-path"><rect class="cls-1" width="64" height="64"/></clipPath></defs><g class="cls-2"><path class="cls-3" d="M46.89,25.1H44a.59.59,0,0,1-.59-.57c-.34-8.41-5.41-15-11.54-15s-11.19,6.58-11.54,15a.58.58,0,0,1-.58.57H16.93a.6.6,0,0,1-.59-.59V7.16a.6.6,0,0,1,.59-.59h30a.59.59,0,0,1,.59.59v4.32a.58.58,0,0,1-.59.59.59.59,0,0,1-.59-.59V7.75H17.52V23.92h1.71c.57-8.77,6.06-15.56,12.68-15.56S44,15.15,44.6,23.92h1.7V18.19a.6.6,0,0,1,.59-.59.59.59,0,0,1,.59.59v6.32A.59.59,0,0,1,46.89,25.1Z"/><path class="cls-3" d="M37.38,53.9H26.44a.6.6,0,0,1-.59-.59V43.11a.59.59,0,0,1,.59-.59.58.58,0,0,1,.59.59v9.61h9.76V43.11a.59.59,0,0,1,.59-.59.58.58,0,0,1,.59.59v10.2A.59.59,0,0,1,37.38,53.9Z"/><path class="cls-3" d="M48.29,7.68H15.53a.6.6,0,0,1-.59-.59V2.62A.6.6,0,0,1,15.53,2H48.29a.59.59,0,0,1,.59.59V7.09A.59.59,0,0,1,48.29,7.68ZM16.12,6.5H47.7V3.21H16.12Z"/><path class="cls-3" d="M31.91,44.59A16.54,16.54,0,0,1,15.39,28.07a.58.58,0,0,1,.59-.59H47.85a.59.59,0,0,1,.59.59A16.55,16.55,0,0,1,31.91,44.59ZM16.58,28.66a15.35,15.35,0,0,0,30.67,0Z"/><path class="cls-3" d="M43.88,28.66H40.47a.58.58,0,0,1-.44-.21.52.52,0,0,1-.14-.46,19.28,19.28,0,0,0,.18-2.57c0-.3,0-.59,0-.88-.3-6.38-3.88-11.37-8.14-11.37-3.92,0-7.38,4.38-8,10.2a.59.59,0,0,1-.65.52.58.58,0,0,1-.52-.65c.73-6.52,4.6-11.25,9.2-11.25,4.89,0,9,5.48,9.31,12.49,0,.3,0,.62,0,.94,0,.67,0,1.35-.11,2.06h2.21a19.28,19.28,0,0,0,.11-2.06c0-.3,0-.59,0-.88-.34-8.42-5.41-15-11.54-15s-11.19,6.58-11.54,15c0,.29,0,.59,0,.89a19.28,19.28,0,0,0,.11,2.06h2.22a20.46,20.46,0,0,1-.11-2.06.59.59,0,0,1,.59-.59.58.58,0,0,1,.59.59A18.4,18.4,0,0,0,23.94,28a.58.58,0,0,1-.14.46.6.6,0,0,1-.45.21H19.94a.58.58,0,0,1-.58-.52,23.2,23.2,0,0,1-.18-2.72c0-.31,0-.63,0-.93.37-9,5.95-16.13,12.71-16.13s12.35,7.08,12.72,16.12c0,.33,0,.63,0,.94a23,23,0,0,1-.17,2.72A.6.6,0,0,1,43.88,28.66Z"/><path class="cls-3" d="M15.19,5.44H14a.59.59,0,1,1,0-1.17h1.23a.59.59,0,0,1,0,1.17Z"/><path class="cls-3" d="M46.91,15.85h0a.62.62,0,0,1-.43-.18L44.14,13.2a.59.59,0,0,1,0-.84.59.59,0,0,1,.83,0l1.93,2L51.31,10a.59.59,0,0,1,.83,0,.6.6,0,0,1,0,.84l-4.82,4.87A.56.56,0,0,1,46.91,15.85Z"/></g></svg>