<svg id="Layer_1" data-name="Layer 1" xmlns="http://www.w3.org/2000/svg" xmlns:xlink="http://www.w3.org/1999/xlink" viewBox="0 0 64 55.84"><defs><style>.cls-1,.cls-3{fill:none;}.cls-2{clip-path:url(#clip-path);}.cls-3{stroke:#01492c;stroke-linecap:round;stroke-linejoin:round;stroke-width:1.5px;}.cls-4{fill:#01492c;}</style><clipPath id="clip-path"><rect class="cls-1" x="-0.32" width="64" height="64"/></clipPath></defs><g class="cls-2"><line class="cls-3" x1="44.5" y1="48.73" x2="26.67" y2="48.73"/><path class="cls-4" d="M21.85,38.68a3.68,3.68,0,0,0,1.87.53c1.07,0,1.69-.56,1.69-1.38s-.43-1.18-1.52-1.6c-1.32-.47-2.13-1.15-2.13-2.29a2.32,2.32,0,0,1,2.61-2.19,3.72,3.72,0,0,1,1.78.39l-.28.85a3.33,3.33,0,0,0-1.54-.38c-1.1,0-1.52.66-1.52,1.21,0,.75.49,1.12,1.61,1.56,1.36.52,2.06,1.18,2.06,2.37s-.92,2.32-2.83,2.32a4.14,4.14,0,0,1-2.06-.51Z"/><path class="cls-4" d="M33.18,37a2.84,2.84,0,0,1-2.89,3.08,2.76,2.76,0,0,1-2.78-3A2.83,2.83,0,0,1,30.39,34,2.75,2.75,0,0,1,33.18,37Zm-4.6.06c0,1.27.73,2.22,1.76,2.22S32.1,38.35,32.1,37c0-1-.49-2.23-1.74-2.23S28.58,36,28.58,37.07Z"/><path class="cls-4" d="M37.72,40l-.09-.73h0a2.17,2.17,0,0,1-1.78.87,1.65,1.65,0,0,1-1.77-1.67c0-1.4,1.25-2.17,3.49-2.16v-.12a1.2,1.2,0,0,0-1.32-1.34,2.93,2.93,0,0,0-1.51.43l-.24-.69A3.61,3.61,0,0,1,36.38,34c1.77,0,2.2,1.21,2.2,2.38v2.16a7.31,7.31,0,0,0,.1,1.39Zm-.16-3c-1.15,0-2.46.18-2.46,1.31a.94.94,0,0,0,1,1,1.45,1.45,0,0,0,1.4-1,1,1,0,0,0,.06-.34Z"/><path class="cls-4" d="M40.28,36.05c0-.75,0-1.34-.05-1.9h1l0,1h0A2.27,2.27,0,0,1,43.31,34c1.4,0,2.45,1.19,2.45,2.95,0,2.09-1.27,3.12-2.63,3.12a2.05,2.05,0,0,1-1.79-.91h0v3.15h-1Zm1,1.54a2,2,0,0,0,0,.44A1.62,1.62,0,0,0,43,39.26c1.11,0,1.76-.91,1.76-2.24,0-1.16-.61-2.16-1.73-2.16a1.68,1.68,0,0,0-1.59,1.31,1.55,1.55,0,0,0-.07.43Z"/><path class="cls-3" d="M13.43,37.28V35.17a9.84,9.84,0,0,1,9.83-9.84h5.28"/><path class="cls-3" d="M48,26a9.84,9.84,0,0,1,6.27,9.17v1.66"/><circle class="cls-3" cx="37.98" cy="17.58" r="4.39"/><circle class="cls-3" cx="41.81" cy="8.95" r="1.9"/><circle class="cls-3" cx="42.17" cy="26.5" r="2.66"/><path class="cls-3" d="M31.57,17.07a3.25,3.25,0,1,1,3.07-5.2"/><circle class="cls-3" cx="45.57" cy="15.08" r="1.41"/><circle class="cls-3" cx="34.23" cy="5.17" r="2.15"/><circle class="cls-3" cx="33.56" cy="24.98" r="1.52"/><path class="cls-3" d="M24.2,45.63a2.43,2.43,0,0,0-.86.16A4,4,0,0,0,19.57,43a3.65,3.65,0,0,0-.74.08,4,4,0,0,0-7.87.48,3.79,3.79,0,1,0-2,7,5.29,5.29,0,0,0,.56,0,5,5,0,0,0,8.78.17,3.87,3.87,0,0,0,1.23.21,3.94,3.94,0,0,0,2.79-1.15,2.47,2.47,0,1,0,1.84-4.13Z"/><path class="cls-3" d="M52.68,40.72a3.4,3.4,0,0,0-1.43,2.62A4.36,4.36,0,1,0,51,50.78a3.09,3.09,0,0,0,4.5-3.94,3.3,3.3,0,0,0,1.15-.52,3.43,3.43,0,1,0-4-5.6Z"/></g></svg>