<svg id="Layer_1" data-name="Layer 1" xmlns="http://www.w3.org/2000/svg" viewBox="0 0 64 55.64"><defs><style>.cls-1{fill:none;stroke:#01492c;stroke-linecap:round;stroke-linejoin:round;stroke-width:1.5px;}.cls-2{fill:#01492c;}</style></defs><path class="cls-1" d="M10.55,30.69l-.78-.78a4.55,4.55,0,0,1,0-6.44L28,5.29a4.54,4.54,0,0,1,6.43,0L41.14,12"/><path class="cls-1" d="M46.61,17.58l7.08,7a4.55,4.55,0,0,1,0,6.44L35.52,49.22a4.57,4.57,0,0,1-6.44,0l-1-1"/><path class="cls-1" d="M23.92,30.72s7.78-7.27,9.17-8.85,1.18-2.77.16-3.61c-1.26-1.05-2.86.25-2.86.25L18.05,30.32c1.19-3.76,1.85-8,.86-9s-4-2.3-5.28,5.35-6.46,17-6.46,17l9.76,9.63s9.35-6.2,12.49-9.44S39,34.22,39,34.22s1.86-1.91.72-3.13c-1.39-1.49-3.1-.38-4.07.56"/><path class="cls-1" d="M26.82,34.22,39.07,22a2.68,2.68,0,0,0,.57-2.52,2,2,0,0,0-3.22-.72c-1.06,1-3.33,3.07-3.33,3.07"/><path class="cls-1" d="M29.42,37.68l9.4-9.15s1.71-2,.31-3.38a2.27,2.27,0,0,0-3.28.09"/><circle class="cls-1" cx="49.05" cy="48.85" r="2.97"/><circle class="cls-1" cx="55.78" cy="40.94" r="1.82"/><path class="cls-2" d="M11.07,6.29l.25.26-.25.25-.26-.25.26-.26m0-4.53c-.15.63-.25,1.25-.34,1.88A3.08,3.08,0,0,1,8.14,6.23l-1.95.31.26.06,1.72.28a3,3,0,0,1,2.58,2.61c.09.61.19,1.22.29,1.83a15.58,15.58,0,0,0,.31-1.63A3.11,3.11,0,0,1,14.2,6.83l1.64-.25V6.52L14,6.23a3.07,3.07,0,0,1-2.28-1.6A4.67,4.67,0,0,1,11.3,3l-.21-1.27Z"/><path class="cls-2" d="M41.93,18.26h0a.76.76,0,0,1-.55-.24l-3-3.17a.77.77,0,0,1,0-1.07.76.76,0,0,1,1.07,0l2.48,2.61,5.65-5.71a.75.75,0,1,1,1.07,1.06L42.47,18A.73.73,0,0,1,41.93,18.26Z"/></svg>