<svg id="Layer_1" data-name="Layer 1" xmlns="http://www.w3.org/2000/svg" xmlns:xlink="http://www.w3.org/1999/xlink" viewBox="0 0 64 55.81"><defs><style>.cls-1,.cls-3{fill:none;}.cls-2{clip-path:url(#clip-path);}.cls-3{stroke:#01492c;stroke-linecap:round;stroke-linejoin:round;stroke-width:1.5px;}.cls-4{fill:#01492c;}</style><clipPath id="clip-path"><rect class="cls-1" x="-0.96" width="64" height="64"/></clipPath></defs><g class="cls-2"><path class="cls-3" d="M31.9,53.31c3.26-2.87,7.69-5,15.6-11.08a20.44,20.44,0,0,0,7.71-15.42v-17c-6.92-.1-7.81-6.76-7.81-6.76h-31s-.89,6.66-7.81,6.76v17A20.44,20.44,0,0,0,16.3,42.23c7.91,6.13,12.34,8.21,15.6,11.08"/><rect class="cls-4" x="29.26" y="10.89" width="3.66" height="11.31" rx="0.67"/><rect class="cls-4" x="29.26" y="28.18" width="3.66" height="11.31" rx="0.67"/><rect class="cls-4" x="20.77" y="26.92" width="3.66" height="11.31" rx="0.67" transform="translate(-9.97 55.17) rotate(-90)"/><path class="cls-4" d="M17.54,22.93h2.31a.67.67,0,0,1,.67.67v3.48a0,0,0,0,1,0,0H16.87a0,0,0,0,1,0,0V23.6A.67.67,0,0,1,17.54,22.93Z" transform="translate(-6.31 43.7) rotate(-90)"/><path class="cls-4" d="M42.08,22.93H44.4a.67.67,0,0,1,.67.67v3.48a0,0,0,0,1,0,0H41.41a0,0,0,0,1,0,0V23.6A.67.67,0,0,1,42.08,22.93Z" transform="translate(68.25 -18.23) rotate(90)"/><path class="cls-4" d="M37.34,10.43h2.31a.67.67,0,0,1,.67.67v3.48a0,0,0,0,1,0,0H36.66a0,0,0,0,1,0,0V11.1A.67.67,0,0,1,37.34,10.43Z"/><path class="cls-4" d="M22.43,10.43h2.31a.67.67,0,0,1,.67.67v3.48a0,0,0,0,1,0,0H21.76a0,0,0,0,1,0,0V11.1A.67.67,0,0,1,22.43,10.43Z"/><path class="cls-4" d="M22.48,35.74h2.31a.67.67,0,0,1,.67.67v3.48a0,0,0,0,1,0,0H21.81a0,0,0,0,1,0,0V36.41A.67.67,0,0,1,22.48,35.74Z" transform="translate(47.28 75.63) rotate(180)"/><path class="cls-4" d="M37.39,35.74H39.7a.67.67,0,0,1,.67.67v3.48a0,0,0,0,1,0,0H36.71a0,0,0,0,1,0,0V36.41A.67.67,0,0,1,37.39,35.74Z" transform="translate(77.08 75.63) rotate(180)"/><rect class="cls-4" x="38.05" y="26.92" width="3.66" height="11.31" rx="0.67" transform="translate(7.3 72.45) rotate(-90)"/><rect class="cls-4" x="38.05" y="12.09" width="3.66" height="11.31" rx="0.67" transform="translate(22.13 57.62) rotate(-90)"/><rect class="cls-4" x="20.77" y="12.2" width="3.66" height="11.31" rx="0.67" transform="translate(4.75 40.45) rotate(-90)"/><rect class="cls-4" x="29.26" y="20.5" width="3.66" height="9.02" rx="0.67" transform="translate(6.08 56.1) rotate(-90)"/><rect class="cls-4" x="21.77" y="20.68" width="3.63" height="8.82"/><rect class="cls-4" x="36.68" y="20.74" width="3.63" height="8.82"/></g></svg>