<svg id="Layer_1" data-name="Layer 1" xmlns="http://www.w3.org/2000/svg" xmlns:xlink="http://www.w3.org/1999/xlink" viewBox="0 0 64 55.82"><defs><style>.cls-1{fill:none;}.cls-2{clip-path:url(#clip-path);}.cls-3{fill:#01492c;stroke:#01492c;stroke-miterlimit:10;stroke-width:0.5px;}</style><clipPath id="clip-path"><rect class="cls-1" x="-0.32" width="64" height="64"/></clipPath></defs><g class="cls-2"><path class="cls-3" d="M28.47,36H25.73a.42.42,0,0,1-.42-.42V34.09H23.85a.42.42,0,0,1-.42-.42V30.93a.42.42,0,0,1,.42-.42h1.46V29.05a.42.42,0,0,1,.42-.43h2.74a.42.42,0,0,1,.42.43v1.46h1.47a.42.42,0,0,1,.42.42v2.74a.42.42,0,0,1-.42.42H28.89v1.47A.42.42,0,0,1,28.47,36Zm-2.31-.84h1.89V33.67a.42.42,0,0,1,.42-.42h1.47v-1.9H28.47a.42.42,0,0,1-.42-.42V29.47H26.16v1.46a.42.42,0,0,1-.43.42H24.27v1.9h1.46a.42.42,0,0,1,.43.42Z"/><path class="cls-3" d="M41.45,53.62H27.77a2.52,2.52,0,0,1-2.52-2.52v-14a.42.42,0,1,1,.84,0v14a1.68,1.68,0,0,0,1.68,1.68H41.45a1.68,1.68,0,0,0,1.68-1.68V30.43a1.68,1.68,0,0,0-1.68-1.67,1.27,1.27,0,0,1-1.26-1.27V16.75a.42.42,0,0,0-.42-.42H37.64a5.5,5.5,0,0,0-5.49,5.49v6.35a1.28,1.28,0,0,1-.78,1.19c-.05,0-.78.39-1.09.5a.42.42,0,0,1-.53-.27.41.41,0,0,1,.26-.53,10.43,10.43,0,0,0,1-.47.44.44,0,0,0,.29-.42V21.82a6.34,6.34,0,0,1,6.33-6.33h2.13A1.26,1.26,0,0,1,41,16.75V27.49a.42.42,0,0,0,.42.42A2.52,2.52,0,0,1,44,30.43V51.1A2.52,2.52,0,0,1,41.45,53.62Z"/><path class="cls-3" d="M40.62,16.33H35.14a.42.42,0,0,1-.42-.42V10.43a.42.42,0,0,1,.42-.42h5.48a.42.42,0,0,1,.42.42v5.48A.42.42,0,0,1,40.62,16.33Zm-5.06-.84H40.2V10.86H35.56Z"/><path class="cls-3" d="M30.36,8H28.5a.42.42,0,0,1-.42-.42V5.72a.42.42,0,0,1,.42-.42h1.86a.42.42,0,0,1,.42.42V7.58A.42.42,0,0,1,30.36,8Zm-1.44-.84h1v-1h-1Z"/><path class="cls-3" d="M30.36,16.08a.39.39,0,0,1-.23-.07l-.93-.62a.41.41,0,0,1-.14-.54l2.33-4.54V8.71h-1a.42.42,0,0,1-.42-.42V5.15a.42.42,0,0,1,.42-.42h8a.44.44,0,0,1,.29.11l5.86,5.26a.43.43,0,0,1,.11.47.42.42,0,0,1-.39.27H34l-3.32,5.05a.4.4,0,0,1-.27.18ZM30,14.9l.26.17,3.21-4.89a.45.45,0,0,1,.36-.19h9.27L38.15,5.57H30.78v2.3h1a.42.42,0,0,1,.42.42v2.13a.43.43,0,0,1,0,.19Z"/><path class="cls-3" d="M21.83,3.45a.47.47,0,0,1-.17,0l-1.55-.68A.42.42,0,0,1,20.45,2L22,2.64a.41.41,0,0,1,.22.55A.42.42,0,0,1,21.83,3.45Z"/><path class="cls-3" d="M25.13,4.9a.38.38,0,0,1-.17,0l-1.54-.67a.42.42,0,0,1-.21-.56.41.41,0,0,1,.55-.21l1.54.67a.42.42,0,0,1-.17.81Z"/><path class="cls-3" d="M20.28,10.87a.41.41,0,0,1-.38-.25.42.42,0,0,1,.21-.55l1.55-.68a.42.42,0,1,1,.33.77l-1.54.68A.47.47,0,0,1,20.28,10.87Z"/><path class="cls-3" d="M23.59,9.42a.41.41,0,0,1-.38-.25.42.42,0,0,1,.21-.56L25,7.93a.44.44,0,0,1,.56.22.43.43,0,0,1-.22.56l-1.54.67A.33.33,0,0,1,23.59,9.42Z"/><path class="cls-3" d="M21.36,6.82H19.68a.42.42,0,1,1,0-.84h1.68a.42.42,0,1,1,0,.84Z"/><path class="cls-3" d="M25.13,6.82H23.45a.42.42,0,1,1,0-.84h1.68a.42.42,0,1,1,0,.84Z"/><path class="cls-3" d="M35.14,47A.33.33,0,0,1,35,47a.41.41,0,0,1-.21-.55c3.24-7,3-30.22,3-30.45a.44.44,0,0,1,.42-.43h0a.43.43,0,0,1,.42.42c0,1,.21,23.69-3.1,30.81A.44.44,0,0,1,35.14,47Z"/><path class="cls-3" d="M43.15,40.39H30.23a.42.42,0,0,1-.42-.42.41.41,0,0,1,.42-.42H43.15a.41.41,0,0,1,.42.42A.42.42,0,0,1,43.15,40.39Z"/><path class="cls-3" d="M28.63,40.39h-1.5a.42.42,0,0,1-.42-.42.42.42,0,0,1,.42-.42h1.5a.42.42,0,0,1,.42.42A.42.42,0,0,1,28.63,40.39Z"/></g></svg>