<?xml version="1.0" encoding="utf-8"?>
<!-- Generator: Adobe Illustrator 16.0.0, SVG Export Plug-In . SVG Version: 6.00 Build 0)  -->
<!DOCTYPE svg PUBLIC "-//W3C//DTD SVG 1.1//EN" "http://www.w3.org/Graphics/SVG/1.1/DTD/svg11.dtd">
<svg version="1.1" id="Layer_1" xmlns="http://www.w3.org/2000/svg" xmlns:xlink="http://www.w3.org/1999/xlink" x="0px" y="0px"
	 width="60px" height="60px" viewBox="0 0 60 60" enable-background="new 0 0 60 60" xml:space="preserve">
<path fill-rule="evenodd" clip-rule="evenodd" fill="#025F6E" d="M30,0c16.568,0,30,13.432,30,30S46.568,60,30,60S0,46.568,0,30
	S13.432,0,30,0z"/>
<path fill="#EDEBA9" d="M23.719,16.993c0.221-0.117,0.47-0.175,0.718-0.175c0.248,0,0.496,0.058,0.719,0.175L42.281,28.28
	C42.725,28.513,43,28.943,43,29.409s-0.274,0.896-0.719,1.128L25.156,41.825c-0.445,0.232-0.993,0.232-1.437,0
	C23.275,41.592,23,41.161,23,40.696V18.121C23,17.656,23.275,17.225,23.719,16.993z"/>
</svg>
